<svg xmlns="http://www.w3.org/2000/svg" xmlns:xlink="http://www.w3.org/1999/xlink" width="40" zoomAndPan="magnify" viewBox="0 0 30 30.000001" height="40" preserveAspectRatio="xMidYMid meet" version="1.2"><defs><clipPath id="d265deb0e3"><path d="M 6.289062 8.417969 L 9.917969 8.417969 L 9.917969 17.128906 L 6.289062 17.128906 Z M 6.289062 8.417969 "/></clipPath><clipPath id="e9eb857bb8"><path d="M 2 1.742188 L 24 1.742188 L 24 23 L 2 23 Z M 2 1.742188 "/></clipPath><clipPath id="fc0fca99f6"><path d="M 0.484375 4 L 29.515625 4 L 29.515625 27.144531 L 0.484375 27.144531 Z M 0.484375 4 "/></clipPath></defs><g id="551368dd49"><g clip-rule="nonzero" clip-path="url(#d265deb0e3)"><path style=" stroke:none;fill-rule:nonzero;fill:#064387;fill-opacity:1;" d="M 6.289062 8.417969 L 9.917969 8.417969 L 9.917969 17.125 L 6.289062 17.125 Z M 6.289062 8.417969 "/></g><g clip-rule="nonzero" clip-path="url(#e9eb857bb8)"><path style=" stroke:none;fill-rule:evenodd;fill:#000000;fill-opacity:1;" d="M 5.367188 22.277344 L 5.367188 2.914062 L 2.730469 2.914062 L 2.730469 1.742188 L 23.902344 1.742188 L 23.988281 8.425781 L 22.6875 8.425781 C 21.828125 6.253906 20.957031 4.800781 20.0625 4.039062 C 19.160156 3.292969 17.863281 2.910156 16.171875 2.910156 L 11.785156 2.910156 L 11.785156 13.347656 C 11.882812 13.363281 12.011719 13.378906 12.140625 13.378906 C 12.28125 13.390625 12.449219 13.390625 12.6875 13.390625 C 14.070312 13.390625 15.117188 13.023438 15.820312 12.292969 C 16.539062 11.558594 17.003906 10.375 17.214844 8.738281 L 18.515625 8.738281 L 18.515625 15.847656 C 17.964844 16.382812 17.398438 16.90625 16.835938 17.410156 C 16.609375 16.734375 16.300781 16.1875 15.917969 15.789062 C 15.199219 15.027344 14.070312 14.632812 12.535156 14.632812 L 11.785156 14.632812 L 11.785156 17.808594 Z M 5.367188 22.277344 "/></g><g clip-rule="nonzero" clip-path="url(#fc0fca99f6)"><path style=" stroke:none;fill-rule:evenodd;fill:#064387;fill-opacity:1;" d="M 0.488281 27.144531 L 15.171875 16.90625 L 15.269531 20.273438 C 19.542969 16.945312 23.535156 12.644531 26.664062 7.425781 C 26.367188 7.242188 25.480469 6.960938 24.96875 6.90625 C 26.421875 6.15625 28.042969 5.183594 29.019531 4.253906 C 29.355469 5.832031 29.203125 7.695312 28.777344 9.121094 C 28.523438 8.710938 28.3125 8.414062 27.945312 8.144531 C 24.828125 13.816406 19.300781 20.25 13.546875 24.945312 L 13.363281 21.320312 L 11.785156 22.800781 L 11.785156 25.890625 L 16.042969 25.890625 C 18.132812 25.890625 19.78125 25.339844 20.953125 24.238281 C 22.136719 23.125 23.066406 21.261719 23.746094 18.667969 L 24.957031 18.667969 L 24.6875 27.144531 Z M 0.488281 27.144531 "/></g></g></svg>