<svg xmlns="http://www.w3.org/2000/svg" xmlns:xlink="http://www.w3.org/1999/xlink" width="40" zoomAndPan="magnify" viewBox="0 0 30 30.000001" height="40" preserveAspectRatio="xMidYMid meet" version="1.2"><defs><clipPath id="ee36951a53"><path d="M 6.289062 8.417969 L 9.917969 8.417969 L 9.917969 17.128906 L 6.289062 17.128906 Z M 6.289062 8.417969 "/></clipPath><clipPath id="d6bb469ac6"><path d="M 0.484375 0 L 29.515625 0 L 29.515625 29.03125 L 0.484375 29.03125 Z M 0.484375 0 "/></clipPath><clipPath id="10edc39286"><path d="M 15 0 C 6.984375 0 0.484375 6.5 0.484375 14.515625 C 0.484375 22.53125 6.984375 29.03125 15 29.03125 C 23.015625 29.03125 29.515625 22.53125 29.515625 14.515625 C 29.515625 6.5 23.015625 0 15 0 Z M 15 0 "/></clipPath><clipPath id="8c0d478b9e"><path d="M 3 2.324219 L 24 2.324219 L 24 22 L 3 22 Z M 3 2.324219 "/></clipPath><clipPath id="ef77aa5365"><path d="M 1.144531 4 L 28.722656 4 L 28.722656 27 L 1.144531 27 Z M 1.144531 4 "/></clipPath></defs><g id="b3bd967716"><g clip-rule="nonzero" clip-path="url(#ee36951a53)"><path style=" stroke:none;fill-rule:nonzero;fill:#064387;fill-opacity:1;" d="M 6.289062 8.417969 L 9.917969 8.417969 L 9.917969 17.125 L 6.289062 17.125 Z M 6.289062 8.417969 "/></g><g clip-rule="nonzero" clip-path="url(#d6bb469ac6)"><g clip-rule="nonzero" clip-path="url(#10edc39286)"><path style=" stroke:none;fill-rule:nonzero;fill:#ffffff;fill-opacity:1;" d="M 0.484375 0 L 29.515625 0 L 29.515625 29.03125 L 0.484375 29.03125 Z M 0.484375 0 "/></g></g><g clip-rule="nonzero" clip-path="url(#8c0d478b9e)"><path style=" stroke:none;fill-rule:evenodd;fill:#000000;fill-opacity:1;" d="M 5.804688 21.945312 L 5.804688 3.441406 L 3.285156 3.441406 L 3.285156 2.324219 L 23.511719 2.324219 L 23.59375 8.710938 L 22.355469 8.710938 C 21.53125 6.636719 20.699219 5.246094 19.847656 4.519531 C 18.984375 3.804688 17.742188 3.441406 16.125 3.441406 L 11.9375 3.441406 L 11.9375 13.414062 C 12.03125 13.425781 12.152344 13.441406 12.273438 13.441406 C 12.410156 13.453125 12.570312 13.453125 12.800781 13.453125 C 14.121094 13.453125 15.117188 13.105469 15.792969 12.402344 C 16.480469 11.703125 16.921875 10.570312 17.125 9.007812 L 18.367188 9.007812 L 18.367188 15.800781 C 17.839844 16.3125 17.300781 16.808594 16.761719 17.296875 C 16.546875 16.648438 16.25 16.125 15.886719 15.746094 C 15.199219 15.015625 14.121094 14.640625 12.652344 14.640625 L 11.9375 14.640625 L 11.9375 17.671875 Z M 5.804688 21.945312 "/></g><g clip-rule="nonzero" clip-path="url(#ef77aa5365)"><path style=" stroke:none;fill-rule:evenodd;fill:#064387;fill-opacity:1;" d="M 1.144531 26.59375 L 15.171875 16.808594 L 15.265625 20.03125 C 19.347656 16.847656 23.160156 12.738281 26.152344 7.753906 C 25.867188 7.578125 25.019531 7.3125 24.53125 7.257812 C 25.921875 6.542969 27.46875 5.609375 28.402344 4.722656 C 28.722656 6.234375 28.578125 8.011719 28.171875 9.371094 C 27.925781 8.980469 27.726562 8.699219 27.378906 8.441406 C 24.398438 13.859375 19.117188 20.003906 13.617188 24.492188 L 13.445312 21.027344 L 11.933594 22.445312 L 11.933594 25.394531 L 16.003906 25.394531 C 18 25.394531 19.574219 24.871094 20.695312 23.820312 C 21.824219 22.753906 22.714844 20.972656 23.363281 18.496094 L 24.523438 18.496094 L 24.265625 26.59375 Z M 1.144531 26.59375 "/></g></g></svg>